<svg width="23" height="22" viewBox="0 0 23 22" fill="none" xmlns="http://www.w3.org/2000/svg">
<g clip-path="url(#clip0_246_2002)">
<path fill-rule="evenodd" clip-rule="evenodd" d="M11.5325 0C5.44479 0 0.523438 4.95763 0.523438 11.0909C0.523438 15.9936 3.67672 20.1435 8.05115 21.6124C8.59807 21.7228 8.7984 21.3737 8.7984 21.0801C8.7984 20.823 8.78038 19.9416 8.78038 19.0233C5.71791 19.6845 5.08018 17.7012 5.08018 17.7012C4.58802 16.4159 3.8588 16.0855 3.8588 16.0855C2.85645 15.4061 3.93181 15.4061 3.93181 15.4061C5.04367 15.4795 5.6271 16.5445 5.6271 16.5445C6.61119 18.2337 8.19695 17.7564 8.83491 17.4626C8.92595 16.7464 9.21778 16.2507 9.52763 15.9753C7.08509 15.7182 4.51523 14.7634 4.51523 10.5032C4.51523 9.29128 4.95241 8.29976 5.64512 7.52862C5.53583 7.25324 5.15297 6.11456 5.75464 4.59054C5.75464 4.59054 6.6842 4.29669 8.78015 5.729C9.6775 5.48622 10.6029 5.36272 11.5325 5.36168C12.4621 5.36168 13.4097 5.49035 14.2847 5.729C16.3809 4.29669 17.3104 4.59054 17.3104 4.59054C17.9121 6.11456 17.529 7.25324 17.4197 7.52862C18.1307 8.29976 18.5498 9.29128 18.5498 10.5032C18.5498 14.7634 15.98 15.6997 13.5192 15.9753C13.9203 16.3241 14.2664 16.9851 14.2664 18.0318C14.2664 19.5191 14.2484 20.7128 14.2484 21.0799C14.2484 21.3737 14.449 21.7228 14.9957 21.6126C19.3701 20.1433 22.5234 15.9936 22.5234 11.0909C22.5414 4.95763 17.602 0 11.5325 0Z" fill="#BBBBBB"/>
</g>
<defs>
<clipPath id="clip0_246_2002">
<rect width="22" height="22" fill="white" transform="translate(0.523438)"/>
</clipPath>
</defs>
</svg>
