<svg width="447" height="435" viewBox="0 0 447 435" fill="none" xmlns="http://www.w3.org/2000/svg">
<path d="M84.6465 385.423L146.263 403.856" stroke="#5E5E60" stroke-opacity="0.6" stroke-linecap="round" stroke-linejoin="round" stroke-dasharray="5.67 5.67"/>
<path d="M396.958 282.725L339.1 225.677L245.853 199.924" stroke="#5E5E60" stroke-opacity="0.6" stroke-linecap="round" stroke-linejoin="round" stroke-dasharray="5.67 5.67"/>
<path d="M351.47 47.5254L428.667 180.682" stroke="#5E5E60" stroke-opacity="0.6" stroke-linecap="round" stroke-linejoin="round" stroke-dasharray="5.67 5.67"/>
<path d="M248.147 25.459L351.468 47.5254L416.974 96.9132L428.666 180.682" stroke="#5E5E60" stroke-opacity="0.6" stroke-linecap="round" stroke-linejoin="round" stroke-dasharray="5.67 5.67"/>
<path d="M445.108 240.841L428.667 180.681L396.958 282.725" stroke="#5E5E60" stroke-opacity="0.6" stroke-linecap="round" stroke-linejoin="round" stroke-dasharray="5.67 5.67"/>
<path d="M154.015 306.047L223.487 238.776" stroke="#5E5E60" stroke-opacity="0.6" stroke-linecap="round" stroke-linejoin="round" stroke-dasharray="5.67 5.67"/>
<path d="M154.015 306.046H292.933" stroke="#5E5E60" stroke-opacity="0.6" stroke-linecap="round" stroke-linejoin="round" stroke-dasharray="5.67 5.67"/>
<path d="M74.6768 325.786L154.014 306.046L146.263 403.855" stroke="#5E5E60" stroke-opacity="0.6" stroke-linecap="round" stroke-linejoin="round" stroke-dasharray="5.67 5.67"/>
<path d="M223.486 238.776L292.932 306.047" stroke="#5E5E60" stroke-opacity="0.6" stroke-linecap="round" stroke-linejoin="round" stroke-dasharray="5.67 5.67"/>
<path d="M201.097 199.924L223.462 238.775L245.854 199.924H201.097Z" stroke="#5E5E60" stroke-opacity="0.6" stroke-linecap="round" stroke-linejoin="round" stroke-dasharray="5.67 5.67"/>
<path d="M300.685 403.855L292.934 306.046L372.271 325.786" stroke="#5E5E60" stroke-opacity="0.6" stroke-linecap="round" stroke-linejoin="round" stroke-dasharray="5.67 5.67"/>
<path d="M198.799 25.4588H248.15L223.461 3.26172L198.799 25.4588Z" stroke="#5E5E60" stroke-opacity="0.6" stroke-linecap="round" stroke-linejoin="round" stroke-dasharray="5.67 5.67"/>
<path d="M300.684 403.855L372.27 325.786" stroke="#5E5E60" stroke-opacity="0.6" stroke-linecap="round" stroke-linejoin="round" stroke-dasharray="5.67 5.67"/>
<path d="M146.263 403.855H300.683L223.46 433.765L146.263 403.855ZM146.263 403.855L74.6768 325.786" stroke="#5E5E60" stroke-opacity="0.6" stroke-linecap="round" stroke-linejoin="round" stroke-dasharray="5.67 5.67"/>
<path d="M372.27 325.786L396.958 282.726L403.404 314.413L372.27 325.786Z" stroke="#5E5E60" stroke-opacity="0.6" stroke-linecap="round" stroke-linejoin="round" stroke-dasharray="5.67 5.67"/>
<path d="M107.849 225.677L201.096 199.924L177.295 105.489" stroke="#5E5E60" stroke-opacity="0.6" stroke-linecap="round" stroke-linejoin="round" stroke-dasharray="5.67 5.67"/>
<path d="M107.849 225.677L177.321 105.515" stroke="#5E5E60" stroke-opacity="0.6" stroke-linecap="round" stroke-linejoin="round" stroke-dasharray="5.67 5.67"/>
<path d="M18.2803 180.681L107.848 225.677L49.989 282.725" stroke="#5E5E60" stroke-opacity="0.6" stroke-linecap="round" stroke-linejoin="round" stroke-dasharray="5.67 5.67"/>
<path d="M95.4775 47.5254L177.294 105.489L198.799 25.459L95.4775 47.5254Z" stroke="#5E5E60" stroke-opacity="0.6" stroke-linecap="round" stroke-linejoin="round" stroke-dasharray="5.67 5.67"/>
<path d="M18.2803 180.682L95.4774 47.5254L29.9721 96.9133L18.2803 180.682ZM18.2803 180.682L49.989 282.726" stroke="#5E5E60" stroke-opacity="0.6" stroke-linecap="round" stroke-linejoin="round" stroke-dasharray="5.67 5.67"/>
<path d="M43.5439 314.413L74.6786 325.786L49.9901 282.726L43.5439 314.413Z" stroke="#5E5E60" stroke-opacity="0.6" stroke-linecap="round" stroke-linejoin="round" stroke-dasharray="5.67 5.67"/>
<path d="M269.653 105.515H177.319" stroke="#5E5E60" stroke-opacity="0.6" stroke-linecap="round" stroke-linejoin="round" stroke-dasharray="5.67 5.67"/>
<path d="M339.101 225.677L292.934 306.046" stroke="#5E5E60" stroke-opacity="0.6" stroke-linecap="round" stroke-linejoin="round" stroke-dasharray="5.67 5.67"/>
<path d="M351.471 47.5251L306.27 1.30078" stroke="#5E5E60" stroke-opacity="0.6" stroke-linecap="round" stroke-linejoin="round" stroke-dasharray="5.67 5.67"/>
<path d="M154.016 306.046L107.849 225.677" stroke="#5E5E60" stroke-opacity="0.6" stroke-linecap="round" stroke-linejoin="round" stroke-dasharray="5.67 5.67"/>
<path d="M140.679 1.30078L223.487 3.26166" stroke="#5E5E60" stroke-opacity="0.6" stroke-linecap="round" stroke-linejoin="round" stroke-dasharray="5.67 5.67"/>
<path d="M223.486 3.26166L306.268 1.30078" stroke="#5E5E60" stroke-opacity="0.6" stroke-linecap="round" stroke-linejoin="round" stroke-dasharray="5.67 5.67"/>
<path d="M362.3 385.423L300.684 403.856" stroke="#5E5E60" stroke-opacity="0.6" stroke-linecap="round" stroke-linejoin="round" stroke-dasharray="5.67 5.67"/>
<path d="M140.679 1.30078L95.4775 47.5251" stroke="#5E5E60" stroke-opacity="0.6" stroke-linecap="round" stroke-linejoin="round" stroke-dasharray="5.67 5.67"/>
<path d="M1.83887 240.841L18.2805 180.681" stroke="#5E5E60" stroke-opacity="0.6" stroke-linecap="round" stroke-linejoin="round" stroke-dasharray="5.67 5.67"/>
<path d="M445.11 240.841L362.302 385.423" stroke="#5E5E60" stroke-opacity="0.6" stroke-linecap="round" stroke-linejoin="round" stroke-dasharray="5.67 5.67"/>
<path d="M84.647 385.423L1.83887 240.841" stroke="#5E5E60" stroke-opacity="0.6" stroke-linecap="round" stroke-linejoin="round" stroke-dasharray="5.67 5.67"/>
<path d="M269.653 105.515L339.099 225.677" stroke="#5E5E60" stroke-opacity="0.6" stroke-linecap="round" stroke-linejoin="round" stroke-dasharray="5.67 5.67"/>
<path d="M269.653 105.515L351.47 47.5254" stroke="#5E5E60" stroke-opacity="0.6" stroke-linecap="round" stroke-linejoin="round" stroke-dasharray="5.67 5.67"/>
<path d="M248.149 25.459L269.628 105.489L245.853 199.925" stroke="#5E5E60" stroke-opacity="0.6" stroke-linecap="round" stroke-linejoin="round" stroke-dasharray="5.67 5.67"/>
<path d="M339.1 225.677L428.667 180.681" stroke="#5E5E60" stroke-opacity="0.6" stroke-linecap="round" stroke-linejoin="round" stroke-dasharray="5.67 5.67"/>
<path d="M129.405 79.0298H317.544L223.462 166.799" stroke="#5E5E60" stroke-opacity="0.6" stroke-width="2" stroke-linecap="round" stroke-linejoin="round"/>
<path d="M223.46 166.798L129.404 79.0292L50.8499 74.8198L21.9336 124.678L66.4303 187.792" stroke="#5E5E60" stroke-opacity="0.6" stroke-width="2" stroke-linecap="round" stroke-linejoin="round"/>
<path d="M66.4308 187.793L1.83887 240.842" stroke="#5E5E60" stroke-opacity="0.6" stroke-width="2" stroke-linecap="round" stroke-linejoin="round"/>
<path d="M160.513 351.617L84.6465 385.423" stroke="#5E5E60" stroke-opacity="0.6" stroke-width="2" stroke-linecap="round" stroke-linejoin="round"/>
<path d="M286.435 351.617H160.514" stroke="#5E5E60" stroke-opacity="0.6" stroke-width="2" stroke-linecap="round" stroke-linejoin="round"/>
<path d="M380.517 187.793L317.543 79.0298" stroke="#5E5E60" stroke-opacity="0.6" stroke-width="2" stroke-linecap="round" stroke-linejoin="round"/>
<path d="M190.579 223.847L160.514 351.618L66.4316 187.793L190.579 223.847Z" stroke="#5E5E60" stroke-opacity="0.6" stroke-width="2" stroke-linecap="round" stroke-linejoin="round"/>
<path d="M223.461 166.798L190.578 223.847H256.371L223.461 166.798Z" stroke="#5E5E60" stroke-opacity="0.6" stroke-width="2" stroke-linecap="round" stroke-linejoin="round"/>
<path d="M362.3 385.45L252.403 425.399L223.46 433.766L194.544 425.399L84.6465 385.45" stroke="#5E5E60" stroke-opacity="0.6" stroke-width="2" stroke-linecap="round" stroke-linejoin="round"/>
<path d="M129.406 79.0298L66.4316 187.793" stroke="#5E5E60" stroke-opacity="0.6" stroke-width="2" stroke-linecap="round" stroke-linejoin="round"/>
<path d="M445.109 240.841L425.014 124.679L416.976 96.913L396.098 74.8205L306.269 1.30078H140.679L50.8504 74.8205L29.9722 96.913L21.9341 124.679L1.83887 240.841" stroke="#5E5E60" stroke-opacity="0.6" stroke-width="2" stroke-linecap="round" stroke-linejoin="round"/>
<path d="M380.517 187.793L445.109 240.842" stroke="#5E5E60" stroke-opacity="0.6" stroke-width="2" stroke-linecap="round" stroke-linejoin="round"/>
<path d="M286.435 351.617L362.301 385.423" stroke="#5E5E60" stroke-opacity="0.6" stroke-width="2" stroke-linecap="round" stroke-linejoin="round"/>
<path d="M362.302 385.449L403.406 314.413L445.11 240.841" stroke="#5E5E60" stroke-opacity="0.6" stroke-width="2" stroke-linecap="round" stroke-linejoin="round"/>
<path d="M286.435 351.618L380.517 187.793" stroke="#5E5E60" stroke-opacity="0.6" stroke-width="2" stroke-linecap="round" stroke-linejoin="round"/>
<path d="M160.514 351.617L194.545 425.398H252.404L286.461 351.617L256.371 223.847" stroke="#5E5E60" stroke-opacity="0.6" stroke-width="2" stroke-linecap="round" stroke-linejoin="round"/>
<path d="M317.543 79.0297L396.098 74.8203L425.014 124.679L380.517 187.793L256.37 223.847" stroke="#5E5E60" stroke-opacity="0.6" stroke-width="2" stroke-linecap="round" stroke-linejoin="round"/>
<path d="M129.405 79.0298L140.68 1.30078" stroke="#5E5E60" stroke-opacity="0.6" stroke-width="2" stroke-linecap="round" stroke-linejoin="round"/>
<path d="M306.27 1.30078L317.544 79.0298" stroke="#5E5E60" stroke-opacity="0.6" stroke-width="2" stroke-linecap="round" stroke-linejoin="round"/>
<path d="M1.83887 240.841L43.5431 314.413L84.647 385.449" stroke="#5E5E60" stroke-opacity="0.6" stroke-width="2" stroke-linecap="round" stroke-linejoin="round"/>
</svg>
