<svg width="23" height="22" viewBox="0 0 23 22" fill="none" xmlns="http://www.w3.org/2000/svg">
<g clip-path="url(#clip0_246_1981)">
<path d="M20.8949 0H2.14766C1.24961 0 0.523438 0.708984 0.523438 1.58555V20.4102C0.523438 21.2867 1.24961 22 2.14766 22H20.8949C21.793 22 22.5234 21.2867 22.5234 20.4145V1.58555C22.5234 0.708984 21.793 0 20.8949 0ZM7.05039 18.7473H3.78477V8.2457H7.05039V18.7473ZM5.41758 6.81484C4.36914 6.81484 3.52266 5.96836 3.52266 4.92422C3.52266 3.88008 4.36914 3.03359 5.41758 3.03359C6.46172 3.03359 7.3082 3.88008 7.3082 4.92422C7.3082 5.96406 6.46172 6.81484 5.41758 6.81484ZM19.2707 18.7473H16.0094V13.6426C16.0094 12.4266 15.9879 10.8582 14.3121 10.8582C12.6148 10.8582 12.357 12.1859 12.357 13.5566V18.7473H9.1V8.2457H12.2281V9.68086H12.2711C12.7051 8.85586 13.7707 7.98359 15.3563 7.98359C18.6605 7.98359 19.2707 10.1578 19.2707 12.9852V18.7473Z" fill="#BBBBBB"/>
</g>
<defs>
<clipPath id="clip0_246_1981">
<rect width="22" height="22" fill="white" transform="translate(0.523438)"/>
</clipPath>
</defs>
</svg>
