<svg width="24" height="18" viewBox="0 0 24 18" fill="none" xmlns="http://www.w3.org/2000/svg">
<path d="M5.82278 17.8233V8.73472L3.00412 6.15607L0.476562 4.7251V16.2194C0.476562 17.1069 1.19559 17.8233 2.08047 17.8233H5.82278Z" fill="#BBBBBB"/>
<path d="M18.6533 17.8233H22.3956C23.2832 17.8233 23.9995 17.1041 23.9995 16.2194V4.7251L21.1367 6.3641L18.6533 8.73462V17.8233Z" fill="#BBBBBB"/>
<path d="M5.82299 8.7347L5.43945 5.18351L5.82299 1.78467L12.2384 6.59628L18.6539 1.78467L19.0829 5.00001L18.6539 8.7347L12.2384 13.5463L5.82299 8.7347Z" fill="#BBBBBB"/>
<path d="M18.6533 1.78465V8.73468L23.9995 4.72506V2.58655C23.9995 0.603152 21.7354 -0.527528 20.1504 0.66196L18.6533 1.78465Z" fill="#BBBBBB"/>
<path d="M0.476562 4.7251L2.93539 6.56929L5.82278 8.73472V1.78469L4.32575 0.662003C2.73792 -0.527578 0.476562 0.603194 0.476562 2.5865V4.7251Z" fill="#BBBBBB"/>
</svg>
