<svg width="124" height="22" viewBox="0 0 124 22" fill="none" xmlns="http://www.w3.org/2000/svg">
<path d="M19.5549 3.04819H13.1435V22H6.54884V3.2249H0V0H19.5549V3.04819Z" fill="white"/>
<path d="M45.1903 22H38.733V15.7269H29.0243V22H22.3838V6.27309H25.498V3.13655H28.7953V0H38.6415V3.00402H41.9388V6.14056H45.1903V22ZM38.6415 12.502V6.14056H35.3899V3.13655H32.0468V6.31727H28.9327V12.502H38.6415Z" fill="white"/>
<path d="M71.7431 22H65.2858V18.996H62.0343V15.8153H58.7828V12.5904H55.5771V22H48.9366V0H55.3939V3.00402H58.6912V6.14056H61.9427V9.36546H65.1484V0H71.7431V22Z" fill="white"/>
<path d="M98.2959 22H91.8386V15.7269H82.1298V22H75.4894V6.27309H78.6036V3.13655H81.9009V0H91.747V3.00402H95.0443V6.14056H98.2959V22ZM91.747 12.502V6.14056H88.4955V3.13655H85.1524V6.31727H82.0383V12.502H91.747Z" fill="white"/>
<path d="M123.2 9.36546H120.086V12.502H116.834V22H110.194V12.6787H106.942V9.49799H103.645V0H110.102V9.36546H116.605V0H123.2V9.36546Z" fill="white"/>
<path d="M71.7439 22H65.2867V18.996H62.0352V15.8153H58.7837V12.5904H55.5779V22H48.9375V0H55.3948V3.00402H58.6921V6.14056H61.9436V9.36546H65.1493V0H71.7439V22Z" fill="#008F00"/>
</svg>
